PathFileType	4	(X/Y/Z)	T1_P1_Vision_Movement_3_0-659.trc
DataRate	CameraRate	NumFrames	NumMarkers	Units	OrigDataRate	OrigDataStartFrame	OrigNumFrames
60	60	4	27	m	60	576	659
Frame#	Time	RHip			RKnee			RAnkle			RBigToe			RSmallToe			RHeel			LHip			LKnee			LAnkle			LBigToe			LSmallToe			LHeel			Neck			Head			Nose			RShoulder			RElbow			RWrist			RThumb			RIndex			RPinky			LShoulder			LElbow			LWrist			LThumb			LIndex			LPinky		
		X1	Y1	Z1	X2	Y2	Z2	X3	Y3	Z3	X4	Y4	Z4	X5	Y5	Z5	X6	Y6	Z6	X7	Y7	Z7	X8	Y8	Z8	X9	Y9	Z9	X10	Y10	Z10	X11	Y11	Z11	X12	Y12	Z12	X13	Y13	Z13	X14	Y14	Z14	X15	Y15	Z15	X16	Y16	Z16	X17	Y17	Z17	X18	Y18	Z18	X19	Y19	Z19	X20	Y20	Z20	X21	Y21	Z21	X22	Y22	Z22	X23	Y23	Z23	X24	Y24	Z24	X25	Y25	Z25	X26	Y26	Z26	X27	Y27	Z27
577	9.616666666666667	-114.54810655077074	3967.5475978530662	-639.1166533288751	244.65252215332137	4056.501347737704	-646.3325775110116	600.8301201406938	4266.43451810444	-692.9031262905495	690.1671471747661	4206.032356675633	-652.4610277754145	676.0403874093373	4139.767562667405	-691.344394485905	638.6764347661748	4315.8165708343995	-700.1777196528799	-160.5604901480967	4062.635495499584	-485.25861110705614	204.32873353432018	4191.569352641714	-495.93519917533837	560.0711732402814	4334.786695220276	-514.6119387942659	641.6407730994576	4246.057887658174	-406.28228559733765	609.99580721681	4279.360430779776	-378.51045225676177	606.7395125829084	4374.631531198601	-539.2181056732103	-705.6006437542324	3820.890356222501	-586.0604512316253	-932.9930215493753	3635.6735385530214	-505.4662858110539	-775.8385746852114	3620.683005577793	-444.38063885143515	-592.6046034848514	3786.5940204227413	-720.4989820324494	-327.66730360359827	3848.4839213616597	-746.5549911860422	-58.428437197253025	3879.679810946846	-717.5012949557625	55.97902385387313	3835.494480274058	-596.6352211193713	74.64007309072394	3841.8355726544964	-605.1269687066558	75.91748324765153	3930.64894301328	-725.6414451347152	-663.692987446101	3995.2728850176113	-473.81880295077264	-422.70016228030215	4118.9165993115	-435.66364245855505	-176.27239195077465	4119.254925606776	-363.8917626755598	-56.78147167554423	4136.726793283649	-378.65636077809364	-14.97171603225256	4158.386957051529	-353.64777312491367	-45.657064649381965	4180.092921287471	-335.08303091860586
578	9.633333333333333	-115.25224716832439	3997.094120321693	-647.1364101693688	246.3490874770758	4087.6327057619637	-654.5861014702334	594.7154183324639	4261.8954805033945	-690.2784844310262	690.1141235217527	4205.390546299609	-652.3614361153935	669.2657487264144	4136.241672044284	-691.7533293011605	632.6240666219344	4311.012247375574	-697.5767772917601	-160.5911878494336	4062.7315884818695	-485.291420037781	204.13616884294458	4191.243678932961	-495.8524222037285	560.4024100064509	4334.858818230032	-514.5371787127661	637.1787106257309	4214.586893806081	-400.05150424076305	610.0282725933782	4278.609740624491	-378.30271144491377	606.8922076335263	4374.844784678781	-539.0677238806521	-705.6299483316849	3820.824611464463	-586.0380919512539	-932.9489490122397	3636.0528759633517	-505.45216595734894	-775.8529872199227	3620.76147067056	-444.3698816322941	-592.6425264804807	3786.695494655132	-720.5334267245919	-327.6791555850173	3848.6945285133716	-746.6529281567804	-56.9965234642003	3898.539951274187	-738.7572399703926	55.99748958496202	3835.47578879422	-596.6048396188934	74.61844616864161	3841.837695254381	-605.1253113132346	75.87884607066546	3930.8250667009283	-725.8047288945678	-659.3130189616725	3967.065274467109	-467.92335035322094	-422.7165505826129	4119.080161377214	-435.7123363724609	-175.92952141974553	4119.442425081563	-363.860504736613	-56.62209717127391	4136.4838680481025	-378.670574453534	-9.167134031490264	4160.6975006175735	-353.0334051370019	-45.653899452669364	4180.977012289164	-335.3979982556453
579	9.65	-114.61691220314887	3967.773227341211	-639.2201534307846	248.8341283939918	4108.626031120418	-669.956835362612	594.7440528097405	4261.517351195272	-690.1810528645279	690.0775266536111	4205.271859892915	-652.4176885682109	674.4348576036867	4158.1598703494055	-707.9676257065918	632.8640225431816	4310.469321338072	-697.509248935282	-160.64200412282847	4062.595391607207	-485.2886734050682	204.21315017382452	4191.129485416696	-495.8361865938855	560.5830758998799	4334.793597629282	-514.4509337246488	637.3319103246168	4214.697211084131	-400.10808316197466	610.1379315213874	4278.653405226572	-378.28511810894764	606.9485027776291	4374.641770020156	-539.1671547464441	-705.558465723698	3820.826185114833	-586.0869184228807	-932.8626721358912	3635.8513296317137	-505.3232403648514	-771.2390981447478	3621.9794028112115	-444.09084876103026	-592.61586494314	3786.7067235494683	-720.5818025043568	-327.6857065472564	3848.698202771277	-746.7293437690184	-51.96668329849447	3900.801444455512	-738.5755889064812	55.92710293462915	3836.347965100346	-596.9491069252977	74.60657215774502	3842.4367188851174	-605.4103997881826	81.35735353434582	3933.608342571612	-725.7176616717024	-659.275327223786	3967.048597007641	-467.9854063548516	-422.7020346745196	4118.920176044514	-435.63319829611817	-176.1970274492663	4119.201389975184	-363.7272211738298	-56.73599973307906	4136.260137485573	-378.6267577518316	-14.984361864844194	4157.972230217402	-353.60850537603983	-45.78381595353883	4180.582148815745	-335.32340297268814
580	9.666666666666666	-114.72039968793715	3967.6099161891807	-639.1854296890594	240.70460325301812	4076.8436665502595	-662.0773493377453	594.7001738947632	4261.997856712014	-690.2694284234697	690.1220200609309	4206.212496436629	-652.603347818391	681.2530898921339	4162.503381037398	-707.7753447364988	632.8953365763713	4310.193457142756	-697.2318073262351	-160.96761857408148	4041.943526979241	-470.57527273394686	204.06949540626337	4191.015199936791	-495.7459267797628	554.1180825553782	4331.376053149602	-515.0619513689124	641.6446131781129	4245.5570604878785	-406.1716650447373	609.9203369619557	4278.9848588913055	-378.17899778510554	606.9657685371288	4374.98805638359	-539.1018550022615	-705.465140254301	3821.0567908197254	-586.2271729247096	-932.6844604950168	3635.750501072065	-505.08322873235016	-766.3422717299026	3625.0552477144797	-445.0321069966684	-587.6824695612062	3788.153652833904	-720.3796970535753	-327.620092297517	3848.678074750511	-746.7855272186301	-52.03041429246079	3900.51322035287	-738.4773626041298	55.794405216862906	3836.0504371470106	-596.7618453505974	74.46379238904206	3842.47149310672	-605.3919464413273	75.81562255370775	3931.4676916372723	-726.1511280575523	-659.2581349021887	3967.096774462911	-467.9622913913118	-422.66176912724484	4118.884802456882	-435.6735497790892	-176.2714430941206	4119.259414915027	-363.86324058191565	-56.77509882936525	4137.833024624008	-379.414944571283	-15.017422436682443	4158.635725605106	-353.9357201448014	-50.856959695862095	4181.179268685862	-336.0709443565378
